<svg id="Capa_1" enable-background="new 0 0 501.51 501.51" height="512" viewBox="0 0 501.51 501.51" width="512" xmlns="http://www.w3.org/2000/svg"><path d="m194.379 160.606c-4.143 0-7.5 3.357-7.5 7.5v61.5c0 4.143 3.357 7.5 7.5 7.5s7.5-3.357 7.5-7.5v-61.5c0-4.142-3.358-7.5-7.5-7.5z" fill="#f0a70a"/><path d="m231.879 160.606c-4.143 0-7.5 3.357-7.5 7.5v61.5c0 4.143 3.357 7.5 7.5 7.5s7.5-3.357 7.5-7.5v-61.5c0-4.142-3.358-7.5-7.5-7.5z" fill="#f0a70a"/><path d="m269.379 160.606c-4.143 0-7.5 3.357-7.5 7.5v61.5c0 4.143 3.357 7.5 7.5 7.5s7.5-3.357 7.5-7.5v-61.5c0-4.142-3.358-7.5-7.5-7.5z" fill="#f0a70a"/><path d="m306.879 160.606c-4.143 0-7.5 3.357-7.5 7.5v61.5c0 4.143 3.357 7.5 7.5 7.5s7.5-3.357 7.5-7.5v-61.5c0-4.142-3.358-7.5-7.5-7.5z" fill="#f0a70a"/><path d="m344.631 39.005h150v462.5h-150z" fill="#ffe5a0"/><path d="m441.772 170.628h-44.289c-3.372 0-6.106-2.734-6.106-6.106v-67.785c0-15.602 12.648-28.25 28.25-28.25 15.602 0 28.25 12.648 28.25 28.25v67.786c.001 3.371-2.733 6.105-6.105 6.105z" fill="#655e67"/><path d="m352.128 0c-4.143 0-7.5 3.357-7.5 7.5v52.005c0 4.143 3.357 7.5 7.5 7.5s7.5-3.357 7.5-7.5v-52.005c0-4.143-3.358-7.5-7.5-7.5z" fill="#ffdd81"/><path d="m487.128 0c-4.143 0-7.5 3.357-7.5 7.5v52.005c0 4.143 3.357 7.5 7.5 7.5s7.5-3.357 7.5-7.5v-52.005c0-4.143-3.358-7.5-7.5-7.5z" fill="#ffe5a0"/><path d="m396.378 0c-4.143 0-7.5 3.357-7.5 7.5v52.005c0 4.143 3.357 7.5 7.5 7.5s7.5-3.357 7.5-7.5v-52.005c0-4.143-3.358-7.5-7.5-7.5z" fill="#ffe5a0"/><path d="m442.878 0c-4.143 0-7.5 3.357-7.5 7.5v52.005c0 4.143 3.357 7.5 7.5 7.5s7.5-3.357 7.5-7.5v-52.005c0-4.143-3.358-7.5-7.5-7.5z" fill="#ffe5a0"/><path d="m393.76 501.505h-49.13v-462.5h35v448.37c0 7.81 6.32 14.13 14.13 14.13z" fill="#ffdd81"/><path d="m414.63 96.735v67.79c0 3.37 2.73 6.1 6.1 6.1h-23.25c-3.37 0-6.1-2.73-6.1-6.1v-67.79c0-15.6 12.65-28.25 28.25-28.25 4.14 0 8.08.89 11.62 2.51-9.8 4.42-16.62 14.29-16.62 25.74z" fill="#544f56"/><path d="m156.879 204.691h187.75v296.814h-187.75z" fill="#f0a70a"/><path d="m344.629 501.505h-187.75v-194.854c0-51.846 42.029-93.875 93.875-93.875 51.846 0 93.875 42.029 93.875 93.875z" fill="#fed22b"/><circle cx="250.629" cy="301.572" fill="#f0a70a" r="55.572"/><path d="m306.2 501.51h-111.143v-62.938c0-30.691 24.88-55.572 55.572-55.572 30.691 0 55.572 24.88 55.572 55.572v62.938z" fill="#655e67"/><path d="m156.881 39.005v462.5h-135.87c-7.81 0-14.13-6.32-14.13-14.13v-448.37z" fill="#ffe5a0"/><path d="m104.023 170.628h-44.289c-3.372 0-6.106-2.734-6.106-6.106v-67.786c0-15.602 12.648-28.25 28.25-28.25 15.602 0 28.25 12.648 28.25 28.25v67.786c.001 3.372-2.733 6.106-6.105 6.106z" fill="#655e67"/><path d="m14.379 0c-4.143 0-7.5 3.357-7.5 7.5v52.005c0 4.143 3.357 7.5 7.5 7.5s7.5-3.357 7.5-7.5v-52.005c0-4.143-3.358-7.5-7.5-7.5z" fill="#ffdd81"/><path d="m149.379 0c-4.143 0-7.5 3.357-7.5 7.5v52.005c0 4.143 3.357 7.5 7.5 7.5s7.5-3.357 7.5-7.5v-52.005c0-4.143-3.358-7.5-7.5-7.5z" fill="#ffe5a0"/><path d="m58.629 0c-4.143 0-7.5 3.357-7.5 7.5v52.005c0 4.143 3.357 7.5 7.5 7.5s7.5-3.357 7.5-7.5v-52.005c0-4.143-3.358-7.5-7.5-7.5z" fill="#ffe5a0"/><path d="m105.129 0c-4.143 0-7.5 3.357-7.5 7.5v52.005c0 4.143 3.357 7.5 7.5 7.5s7.5-3.357 7.5-7.5v-52.005c0-4.143-3.358-7.5-7.5-7.5z" fill="#ffe5a0"/><path d="m56.011 501.505h-35c-7.81 0-14.13-6.32-14.13-14.13v-448.37h35v448.37c0 7.81 6.32 14.13 14.13 14.13z" fill="#ffdd81"/><path d="m76.881 96.735v67.79c0 3.37 2.73 6.1 6.1 6.1h-23.25c-3.37 0-6.1-2.73-6.1-6.1v-67.79c0-15.6 12.65-28.25 28.25-28.25 4.14 0 8.08.89 11.62 2.51-9.8 4.42-16.62 14.29-16.62 25.74z" fill="#544f56"/><path d="m6.881 197.195h150v15h-150z" fill="#f0a70a"/><path d="m344.631 197.195h150v15h-150z" fill="#f0a70a"/><path d="m6.881 338.505h150v15h-150z" fill="#f0a70a"/><path d="m344.631 338.505h150v15h-150z" fill="#f0a70a"/><path d="m6.881 197.195h35v15h-35z" fill="#e38803"/><path d="m344.631 197.195h35v15h-35z" fill="#e38803"/><path d="m6.881 338.505h35v15h-35z" fill="#e38803"/><path d="m344.631 338.505h35v15h-35z" fill="#e38803"/><path d="m268.251 214.398c-43.48 8.19-76.37 46.37-76.37 92.24v194.85l-35 .017v-194.867c0-51.85 42.03-93.88 93.87-93.88 5.98 0 11.83.56 17.5 1.64z" fill="#fdc202"/><path d="m268.131 354.325c-5.5 1.83-11.39 2.82-17.5 2.82-30.69 0-55.57-24.88-55.57-55.57s24.88-55.57 55.57-55.57c6.11 0 12 .99 17.5 2.82-22.12 7.33-38.07 28.18-38.07 52.75s15.95 45.42 38.07 52.75z" fill="#e38803"/><g fill="#d5f1fe"><path d="m250.629 260.251c-4.143 0-7.5 3.357-7.5 7.5v13.82c0 4.143 3.357 7.5 7.5 7.5s7.5-3.357 7.5-7.5v-13.82c0-4.143-3.358-7.5-7.5-7.5z"/><path d="m237.058 285.076-11.969-6.91c-3.59-2.07-8.175-.843-10.245 2.745-2.071 3.587-.842 8.174 2.745 10.245l11.969 6.91c1.182.682 2.471 1.006 3.743 1.006 2.592 0 5.113-1.345 6.502-3.751 2.072-3.587.842-8.174-2.745-10.245z"/><path d="m229.558 305.076-11.969 6.91c-3.587 2.071-4.816 6.658-2.745 10.245 1.389 2.406 3.91 3.751 6.502 3.751 1.272 0 2.563-.324 3.743-1.006l11.969-6.91c3.587-2.071 4.816-6.658 2.745-10.245-2.071-3.588-6.66-4.814-10.245-2.745z"/><path d="m250.629 314.071c-4.143 0-7.5 3.357-7.5 7.5v13.82c0 4.143 3.357 7.5 7.5 7.5s7.5-3.357 7.5-7.5v-13.82c0-4.142-3.358-7.5-7.5-7.5z"/><path d="m283.668 311.986-11.969-6.91c-3.59-2.07-8.175-.843-10.245 2.745-2.071 3.587-.842 8.174 2.745 10.245l11.969 6.91c1.182.682 2.471 1.006 3.743 1.006 2.592 0 5.113-1.345 6.502-3.751 2.071-3.586.842-8.173-2.745-10.245z"/><path d="m267.956 299.072c1.272 0 2.563-.324 3.743-1.006l11.969-6.91c3.587-2.071 4.816-6.658 2.745-10.245-2.07-3.588-6.659-4.815-10.245-2.745l-11.969 6.91c-3.587 2.071-4.816 6.658-2.745 10.245 1.389 2.407 3.91 3.751 6.502 3.751z"/></g><path d="m268.131 385.815c-22.12 7.33-38.07 28.19-38.07 52.76v62.93h-35v-62.93c0-30.69 24.88-55.58 55.57-55.58 6.11 0 12 .99 17.5 2.82z" fill="#544f56"/><path d="m59.812 240.242c-9.054 0-16.42 7.365-16.42 16.419 0 6.351 3.631 11.859 8.92 14.589v35.712c0 4.143 3.357 7.5 7.5 7.5s7.5-3.357 7.5-7.5v-35.712c5.288-2.73 8.919-8.238 8.919-14.589 0-9.054-7.365-16.419-16.419-16.419z" fill="#655e67"/><path d="m103.945 240.242c-9.054 0-16.419 7.365-16.419 16.419 0 6.351 3.63 11.859 8.919 14.589v35.712c0 4.143 3.357 7.5 7.5 7.5s7.5-3.357 7.5-7.5v-35.712c5.289-2.73 8.92-8.238 8.92-14.589 0-9.054-7.366-16.419-16.42-16.419z" fill="#655e67"/><path d="m397.562 240.242c-9.054 0-16.42 7.365-16.42 16.419 0 6.351 3.631 11.859 8.92 14.589v35.712c0 4.143 3.357 7.5 7.5 7.5s7.5-3.357 7.5-7.5v-35.712c5.288-2.73 8.919-8.238 8.919-14.589 0-9.054-7.365-16.419-16.419-16.419z" fill="#655e67"/><path d="m458.115 256.661c0-9.054-7.366-16.419-16.42-16.419s-16.419 7.365-16.419 16.419c0 6.351 3.63 11.859 8.919 14.589v35.712c0 4.143 3.357 7.5 7.5 7.5s7.5-3.357 7.5-7.5v-35.712c5.289-2.73 8.92-8.238 8.92-14.589z" fill="#655e67"/></svg>